<?xml version="1.0" encoding="utf-8"?>
<!-- Generator: Adobe Illustrator 17.0.0, SVG Export Plug-In . SVG Version: 6.00 Build 0)  -->
<!DOCTYPE svg PUBLIC "-//W3C//DTD SVG 1.1//EN" "http://www.w3.org/Graphics/SVG/1.1/DTD/svg11.dtd">
<svg version="1.1" id="Livello_1" xmlns="http://www.w3.org/2000/svg" xmlns:xlink="http://www.w3.org/1999/xlink" x="0px" y="0px"
	 width="32px" height="32px" viewBox="0 0 32 32" enable-background="new 0 0 32 32" xml:space="preserve">
<path fill="#776CFF" d="M60.833,29.649c-2.325,5.197-4.97,9.798-8.976,13.364c-6.201,5.521-13.344,7.425-21.348,4.496
	c-3.611-1.322-5.902-4.339-8.252-7.199c-1.204-1.466-2.371-2.962-3.568-4.433c-2.948-3.623-6.654-4.736-11.094-3.272
	c-1.4,0.461-2.764,1.029-4.427,1.655c0.52-1.091,0.92-1.972,1.355-2.835c1.877-3.724,4.184-7.15,7.158-10.092
	c5.831-5.768,14.986-7.8,21.816-4.891c2.699,1.15,4.74,3.113,6.592,5.293c1.712,2.017,3.308,4.132,5.014,6.154
	c3.528,4.18,6.981,5.076,12.143,3.198C58.351,30.683,59.43,30.213,60.833,29.649z"/>
</svg>
